<svg width="375" height="232" viewBox="0 0 375 232" fill="none" xmlns="http://www.w3.org/2000/svg">
<path d="M-47.1492 175.852L33.4986 232H111.943L144.154 133.611L-47.1492 175.852Z" fill="#9C1581"/>
<path d="M-24.2329 232H33.4986L-47.1492 175.852L-24.2329 232Z" fill="#951D82"/>
<path d="M110.982 232H148.04L255.05 137.081L144.154 133.611L110.982 232Z" fill="#BA2F8B"/>
<path d="M255.05 137.081L375 87.9001V64.8097L312.1 59.0697L255.05 137.081Z" fill="#BA2F8B"/>
<path d="M148.04 232H272.518L255.05 137.081L148.04 232Z" fill="#A81182"/>
<path d="M255.05 137.081L375 168.443V87.9001L255.05 137.081Z" fill="#A81182"/>
<path d="M272.517 232H372.837L255.05 137.081L272.517 232Z" fill="#58006D"/>
<path d="M312.1 59.0697L375 64.8097V0L312.1 59.0697Z" fill="#9A2883"/>
<path d="M372.837 232H375V168.443L255.05 137.081L372.837 232Z" fill="#5A006F"/>
</svg>
